<?xml version="1.0" standalone="no"?>
<!DOCTYPE svg PUBLIC "-//W3C//DTD SVG 1.1//EN" "http://www.w3.org/Graphics/SVG/1.1/DTD/svg11.dtd">
<svg width="100%" height="100%" viewBox="0 0 480 315" version="1.1" xmlns="http://www.w3.org/2000/svg" xmlns:xlink="http://www.w3.org/1999/xlink" xml:space="preserve" style="fill-rule:evenodd;clip-rule:evenodd;stroke-linejoin:round;stroke-miterlimit:1.41421;">
    <g transform="matrix(1,0,0,1,-258,-122)">
        <path id="Combined-Shape" d="M408,422C490.843,422 558,354.843 558,272C558,189.157 490.843,122 408,122C325.157,122 258,189.157 258,272C258,354.843 325.157,422 408,422ZM408.5,400C478.916,400 536,342.916 536,272.5C536,202.084 478.916,145 408.5,145C338.084,145 281,202.084 281,272.5C281,342.916 338.084,400 408.5,400Z" style="fill:white;"/>
        <g id="Combined-Shape1" transform="matrix(0.573174,0.573174,-0.573174,0.573174,435.478,-154.919)">
            <path d="M553.569,406.569C575.66,406.569 593.569,388.66 593.569,366.569C593.569,344.477 575.66,326.569 553.569,326.569C531.477,326.569 513.569,344.477 513.569,366.569C513.569,388.66 531.477,406.569 553.569,406.569ZM553.569,394.569C569.033,394.569 581.569,382.033 581.569,366.569C581.569,351.105 569.033,338.569 553.569,338.569C538.105,338.569 525.569,351.105 525.569,366.569C525.569,382.033 538.105,394.569 553.569,394.569Z" style="fill:white;stroke-width:1.23px;stroke:white;"/>
        </g>
        <path id="Star-2" d="M501.455,213.099L495.626,233L501.455,252.901L499.901,254.455L480,248.626L460.099,254.455L458.545,252.901L464.374,233L458.545,213.099L460.099,211.545L480,217.374L499.901,211.545L501.455,213.099ZM480,223.626L466.743,219.743L470.626,233L466.743,246.257L480,242.374L493.257,246.257L489.374,233L493.257,219.743L480,223.626Z" style="fill:white;"/>
        <path d="M597.841,157.612L598.068,157.613L598.524,157.619L598.753,157.624L598.983,157.63L599.214,157.637L599.445,157.646L599.677,157.655L599.91,157.666L600.144,157.678L600.378,157.691L600.613,157.705L600.849,157.72L601.085,157.737L601.323,157.755L601.561,157.774L601.799,157.794L602.039,157.815L602.279,157.837L602.52,157.861L602.762,157.886L603.005,157.912L603.249,157.939L603.493,157.967L603.738,157.996L603.983,158.027L604.23,158.059L604.477,158.092L604.725,158.126L604.974,158.161L605.224,158.197L605.475,158.235L605.726,158.274L605.978,158.314L606.231,158.355L606.484,158.397L606.994,158.485L607.25,158.531L607.507,158.578L607.765,158.626L608.023,158.675L608.283,158.726L608.543,158.778L608.804,158.83L609.066,158.884L609.328,158.94L609.592,158.996L609.856,159.053L610.121,159.112L610.387,159.172L610.654,159.233L610.922,159.295L611.19,159.359L611.459,159.423L611.73,159.489L612.001,159.556L612.273,159.624L612.545,159.694L612.819,159.764L613.094,159.836L613.369,159.909L613.645,159.983L613.922,160.058L614.2,160.135L614.479,160.212L614.759,160.291L615.039,160.371L615.321,160.452L615.603,160.535L615.886,160.619L616.171,160.703L616.741,160.877L617.028,160.965L617.316,161.055L617.605,161.146L617.894,161.238L618.185,161.331L618.476,161.426L618.768,161.521L619.061,161.618L619.355,161.716L619.65,161.816L619.946,161.916L620.243,162.018L620.541,162.121L620.84,162.225L621.139,162.331L621.44,162.437L621.741,162.545L622.044,162.654L622.347,162.765L622.651,162.876L622.956,162.989L623.263,163.103L623.57,163.218L623.878,163.335L624.187,163.453L624.497,163.572L624.808,163.692L625.12,163.813L625.433,163.936L625.746,164.06L626.061,164.185L626.377,164.312L627.011,164.568L627.33,164.699L627.65,164.83L627.97,164.963L628.292,165.097L628.614,165.232L629.262,165.506L629.588,165.646L629.917,165.787L630.57,166.07L631.23,166.36L631.894,166.655L632.562,166.954L633.234,167.259L633.91,167.569L634.59,167.885L635.274,168.205L635.962,168.531L636.655,168.861L637.351,169.198L638.052,169.539L638.757,169.885L639.465,170.237L640.179,170.594L640.896,170.957L641.617,171.324L642.343,171.697L643.073,172.076L643.807,172.46L644.546,172.849L645.288,173.243L646.036,173.643L646.781,174.046L648.002,174.705L649.236,175.368L650.488,176.038L651.119,176.375L651.755,176.713L652.396,177.052L653.04,177.393L653.688,177.735L654.34,178.078L654.996,178.422L655.656,178.767L656.319,179.113L656.985,179.46L657.655,179.808L658.328,180.157L659.005,180.506L659.685,180.856L660.368,181.207L661.054,181.558L661.742,181.909L662.434,182.261L663.129,182.613L663.826,182.966L664.525,183.319L665.228,183.672L665.932,184.025L666.64,184.378L667.349,184.731L668.061,185.084L668.774,185.437L669.49,185.79L670.208,186.143L670.927,186.495L671.648,186.847L672.372,187.199L673.096,187.55L673.822,187.9L674.55,188.25L675.279,188.6L676.741,189.296L677.474,189.643L678.208,189.989L678.942,190.334L679.678,190.678L680.414,191.021L681.152,191.363L681.889,191.704L682.628,192.044L683.367,192.382L684.106,192.719L684.845,193.054L685.585,193.388L686.325,193.721L687.805,194.381L688.544,194.708L689.284,195.034L690.023,195.358L690.762,195.679L691.501,195.999L692.239,196.317L692.976,196.633L693.713,196.947L694.449,197.259L695.184,197.568L695.918,197.875L696.651,198.18L697.383,198.482L698.113,198.782L698.843,199.079L699.571,199.373L700.297,199.665L701.022,199.955L701.746,200.241L702.467,200.525L703.187,200.805L703.905,201.083L704.621,201.358L705.335,201.629L706.046,201.898L706.756,202.163L707.463,202.425L708.167,202.684L708.87,202.939L709.569,203.191L710.266,203.439L710.96,203.684L711.651,203.925L712.339,204.163L713.024,204.396L713.706,204.626L714.385,204.853L715.06,205.075L715.732,205.293L716.401,205.507L717.066,205.718L717.727,205.924L718.386,206.126L718.711,206.225L719.037,206.323L719.362,206.42L719.687,206.516L720.01,206.611L720.332,206.705L720.653,206.798L720.973,206.89L721.292,206.98L721.609,207.07L721.926,207.158L722.242,207.245L722.556,207.331L722.869,207.416L723.181,207.5L723.493,207.582L723.802,207.664L724.111,207.744L724.418,207.823L724.724,207.901L725.03,207.977L725.333,208.053L725.636,208.127L725.937,208.2L726.237,208.271L726.535,208.342L726.832,208.411L727.128,208.479L727.423,208.546L727.716,208.611L728.008,208.675L728.299,208.738L728.588,208.8L728.875,208.86L729.161,208.919L729.446,208.977L729.729,209.033L730.011,209.089L730.292,209.142L730.57,209.195L730.848,209.246L731.123,209.296L731.398,209.344L731.67,209.391L731.941,209.437L732.211,209.482L732.479,209.525L732.745,209.567L733.009,209.607L733.272,209.646L733.534,209.684L733.803,209.721L735.572,210.337L736.971,211.583L737.786,213.269L737.894,215.139L737.278,216.908L736.032,218.306L734.346,219.121L732.476,219.229L732.186,219.188L731.884,219.145L731.581,219.1L731.278,219.054L730.973,219.006L730.667,218.957L730.36,218.906L730.052,218.854L729.744,218.801L729.434,218.746L729.123,218.69L728.811,218.632L728.499,218.573L728.185,218.513L727.87,218.452L727.554,218.389L727.238,218.324L726.92,218.259L726.601,218.192L726.282,218.124L725.961,218.054L725.64,217.984L725.317,217.912L724.994,217.839L724.669,217.764L724.344,217.688L724.018,217.611L723.691,217.533L723.363,217.454L723.034,217.373L722.704,217.291L722.374,217.208L722.042,217.124L721.71,217.039L721.376,216.952L721.042,216.864L720.707,216.775L720.371,216.685L720.035,216.594L719.697,216.502L719.359,216.408L719.02,216.314L718.68,216.218L718.339,216.121L717.998,216.024L717.655,215.925L717.312,215.825L716.968,215.723L716.624,215.621L716.278,215.518L715.932,215.414L715.583,215.308L714.889,215.095L714.19,214.877L713.488,214.655L712.784,214.429L712.077,214.199L711.367,213.966L710.655,213.729L709.94,213.487L709.223,213.243L708.503,212.994L707.782,212.742L707.058,212.487L706.331,212.228L705.603,211.966L704.873,211.701L704.141,211.432L703.407,211.16L702.671,210.885L701.934,210.607L701.194,210.325L700.454,210.041L699.712,209.754L698.968,209.464L698.223,209.171L697.477,208.876L696.729,208.578L695.981,208.277L695.231,207.974L694.48,207.668L693.729,207.359L692.976,207.049L692.223,206.736L691.47,206.42L690.715,206.103L689.96,205.783L689.205,205.462L688.449,205.138L687.693,204.812L686.937,204.484L686.18,204.155L685.424,203.823L684.667,203.49L683.911,203.155L683.154,202.819L682.398,202.481L681.643,202.141L680.887,201.8L680.132,201.458L679.378,201.114L678.624,200.769L677.871,200.423L677.119,200.075L676.368,199.727L675.617,199.377L674.868,199.026L674.119,198.675L673.372,198.322L672.626,197.969L671.881,197.615L671.138,197.26L670.396,196.905L669.656,196.549L668.917,196.192L668.18,195.835L667.445,195.478L666.712,195.12L665.98,194.762L665.251,194.404L664.524,194.045L663.799,193.687L663.076,193.328L662.355,192.969L661.637,192.61L660.922,192.252L660.209,191.893L659.498,191.535L658.791,191.177L658.086,190.82L657.384,190.463L656.685,190.106L655.989,189.75L655.296,189.394L654.606,189.039L653.92,188.685L653.237,188.331L652.557,187.978L651.881,187.626L651.209,187.275L650.54,186.925L649.875,186.576L649.214,186.228L648.556,185.882L647.903,185.536L647.254,185.192L646.609,184.849L645.967,184.507L644.699,183.829L643.448,183.156L642.221,182.493L641.491,182.099L640.771,181.714L640.056,181.334L639.346,180.96L638.64,180.591L637.94,180.228L637.243,179.87L636.552,179.518L635.865,179.17L635.182,178.829L634.505,178.492L633.832,178.161L633.163,177.836L632.499,177.516L631.84,177.201L631.185,176.891L630.535,176.586L629.89,176.287L629.249,175.993L628.613,175.705L627.981,175.421L627.354,175.143L626.732,174.87L626.111,174.601L625.807,174.47L625.501,174.339L625.195,174.209L624.891,174.081L624.589,173.954L624.288,173.829L623.987,173.704L623.688,173.581L623.39,173.459L623.093,173.339L622.797,173.219L622.502,173.101L622.208,172.984L621.916,172.869L621.625,172.755L621.334,172.642L621.045,172.53L620.757,172.419L620.471,172.31L620.185,172.202L619.9,172.095L619.617,171.99L619.335,171.885L619.054,171.782L618.773,171.68L618.495,171.58L618.217,171.48L617.94,171.382L617.665,171.285L617.39,171.189L617.117,171.095L616.845,171.001L616.574,170.909L616.304,170.818L616.035,170.729L615.768,170.64L615.501,170.553L615.236,170.467L614.972,170.382L614.709,170.298L614.447,170.216L614.186,170.135L613.926,170.055L613.667,169.976L613.41,169.898L613.154,169.821L612.898,169.746L612.644,169.672L612.391,169.599L612.139,169.527L611.888,169.456L611.639,169.387L611.39,169.318L611.143,169.251L610.897,169.185L610.652,169.12L610.408,169.056L610.165,168.994L609.923,168.932L609.682,168.872L609.443,168.813L609.204,168.755L608.967,168.698L608.731,168.642L608.496,168.587L608.262,168.534L608.029,168.481L607.797,168.43L607.567,168.38L607.337,168.331L607.109,168.283L606.882,168.236L606.656,168.19L606.431,168.146L606.207,168.102L605.984,168.059L605.762,168.018L605.542,167.978L605.323,167.939L605.104,167.9L604.887,167.863L604.671,167.827L604.456,167.792L604.243,167.759L604.03,167.726L603.818,167.694L603.608,167.663L603.398,167.634L603.19,167.605L602.983,167.577L602.777,167.551L602.572,167.525L602.368,167.501L602.166,167.477L601.965,167.455L601.764,167.434L601.565,167.413L601.366,167.394L601.169,167.375L600.974,167.358L600.779,167.342L600.585,167.326L600.392,167.312L600.201,167.299L600.01,167.286L599.821,167.275L599.633,167.264L599.446,167.255L599.26,167.246L599.075,167.238L598.891,167.232L598.709,167.226L598.527,167.221L598.346,167.218L598.167,167.215L597.989,167.213L597.812,167.212L597.635,167.212L597.46,167.213L597.287,167.214L597.114,167.217L596.942,167.22L596.771,167.225L596.602,167.23L596.433,167.236L596.266,167.244L596.1,167.252L595.935,167.26L595.77,167.27L595.607,167.281L595.445,167.292L595.285,167.304L595.125,167.318L594.966,167.332L594.808,167.346L594.652,167.362L594.496,167.379L594.341,167.396L594.188,167.414L594.035,167.433L593.884,167.453L593.734,167.473L593.584,167.494L593.436,167.517L593.289,167.54L593.143,167.563L592.997,167.588L592.853,167.613L592.71,167.639L592.568,167.666L592.427,167.693L592.287,167.721L592.147,167.75L592.009,167.78L591.872,167.811L591.736,167.842L591.601,167.874L591.467,167.907L591.333,167.94L591.201,167.974L591.07,168.009L590.939,168.044L590.81,168.081L590.682,168.117L590.554,168.155L590.427,168.194L590.302,168.232L590.177,168.272L590.053,168.312L589.931,168.353L589.808,168.395L589.687,168.438L589.567,168.481L589.448,168.524L589.329,168.569L589.212,168.613L589.095,168.659L588.979,168.706L588.864,168.752L588.75,168.8L588.636,168.848L588.524,168.897L588.413,168.946L588.301,168.997L588.191,169.047L588.082,169.099L587.974,169.151L587.866,169.203L587.759,169.257L587.653,169.311L587.548,169.365L587.443,169.42L587.339,169.476L587.236,169.533L587.133,169.59L587.032,169.647L586.931,169.705L586.83,169.764L586.731,169.824L586.632,169.884L586.533,169.945L586.436,170.006L586.339,170.068L586.243,170.131L586.147,170.194L586.053,170.258L585.958,170.323L585.865,170.388L585.771,170.454L585.679,170.521L585.588,170.587L585.497,170.655L585.406,170.724L585.316,170.793L585.227,170.862L585.138,170.933L585.05,171.004L584.962,171.075L584.875,171.148L584.789,171.221L584.703,171.295L584.618,171.369L584.533,171.444L584.448,171.52L584.364,171.596L584.281,171.673L584.199,171.751L584.117,171.829L584.035,171.909L583.954,171.989L583.873,172.069L583.793,172.15L583.713,172.233L583.635,172.315L583.556,172.398L583.478,172.482L583.4,172.567L583.323,172.653L583.247,172.739L583.171,172.826L583.094,172.914L583.019,173.003L582.944,173.092L582.87,173.182L582.796,173.273L582.723,173.364L582.65,173.456L582.578,173.55L582.506,173.644L582.435,173.738L582.363,173.833L582.293,173.93L582.223,174.026L582.153,174.124L582.084,174.222L582.015,174.322L581.947,174.422L581.879,174.523L581.811,174.625L581.745,174.727L581.679,174.83L581.612,174.934L581.547,175.039L581.482,175.145L581.417,175.251L581.353,175.359L581.29,175.466L581.227,175.575L581.164,175.685L581.101,175.796L581.039,175.907L580.978,176.019L580.917,176.132L580.857,176.246L580.797,176.361L580.737,176.476L580.678,176.593L580.619,176.71L580.561,176.827L580.504,176.946L580.446,177.066L580.389,177.186L580.334,177.307L580.278,177.429L580.222,177.552L580.167,177.677L580.113,177.801L580.06,177.925L580.006,178.052L579.953,178.18L579.901,178.307L579.849,178.436L579.797,178.566L579.746,178.696L579.696,178.827L579.646,178.959L579.596,179.092L579.548,179.225L579.499,179.36L579.451,179.496L579.403,179.632L579.356,179.769L579.31,179.906L579.264,180.045L579.218,180.184L579.173,180.325L579.129,180.466L579.085,180.607L579.041,180.75L578.998,180.894L578.956,181.038L578.914,181.183L578.873,181.329L578.832,181.476L578.791,181.624L578.751,181.772L578.712,181.921L578.673,182.071L578.635,182.221L578.597,182.373L578.56,182.525L578.523,182.678L578.486,182.833L578.451,182.987L578.416,183.142L578.381,183.299L578.347,183.455L578.313,183.613L578.28,183.772L578.248,183.926L578.184,184.252L578.122,184.576L578.063,184.903L578.006,185.233L577.951,185.566L577.898,185.902L577.847,186.241L577.798,186.583L577.752,186.928L577.708,187.276L577.665,187.626L577.625,187.979L577.587,188.336L577.552,188.695L577.518,189.057L577.487,189.421L577.457,189.789L577.43,190.159L577.405,190.532L577.382,190.907L577.361,191.286L577.343,191.666L577.326,192.05L577.312,192.436L577.3,192.824L577.29,193.215L577.282,193.609L577.276,194.005L577.273,194.404L577.271,194.805L577.272,195.208L577.274,195.614L577.279,196.023L577.286,196.433L577.295,196.846L577.306,197.262L577.319,197.68L577.334,198.1L577.351,198.522L577.371,198.947L577.392,199.373L577.415,199.802L577.441,200.234L577.468,200.667L577.498,201.102L577.529,201.54L577.563,201.98L577.598,202.422L577.636,202.866L577.675,203.311L577.717,203.76L577.76,204.209L577.806,204.662L577.853,205.116L577.902,205.571L577.954,206.029L578.007,206.489L578.062,206.95L578.119,207.414L578.178,207.879L578.239,208.346L578.302,208.815L578.366,209.286L578.433,209.759L578.501,210.233L578.572,210.709L578.644,211.187L578.718,211.666L578.793,212.147L578.871,212.63L578.95,213.114L579.031,213.6L579.114,214.088L579.199,214.577L579.286,215.068L579.374,215.56L579.464,216.054L579.556,216.55L579.649,217.046L579.744,217.545L579.841,218.045L579.94,218.546L580.041,219.048L580.143,219.552L580.246,220.058L580.352,220.565L580.459,221.073L580.567,221.582L580.678,222.093L580.79,222.605L580.903,223.119L581.019,223.633L581.135,224.149L581.254,224.666L581.374,225.184L581.495,225.704L581.618,226.225L581.743,226.746L581.869,227.269L581.997,227.794L582.126,228.319L582.257,228.845L582.389,229.372L582.523,229.901L582.658,230.43L582.795,230.961L582.933,231.492L583.072,232.024L583.213,232.558L583.356,233.092L583.5,233.627L583.645,234.164L583.792,234.701L583.94,235.239L584.089,235.778L584.24,236.317L584.392,236.858L584.546,237.399L584.7,237.941L584.857,238.484L585.014,239.028L585.173,239.572L585.333,240.117L585.494,240.663L585.657,241.209L585.821,241.757L585.986,242.305L586.152,242.853L586.32,243.402L586.489,243.952L586.659,244.502L586.83,245.053L587.176,246.157L587.351,246.709L587.527,247.262L587.704,247.816L587.883,248.37L588.062,248.925L588.242,249.48L588.424,250.035L588.607,250.591L588.975,251.703L589.161,252.261L589.348,252.818L589.726,253.934L589.916,254.492L590.107,255.05L590.299,255.609L590.492,256.168L590.686,256.727L590.881,257.287L591.077,257.847L591.274,258.406L591.472,258.967L591.671,259.527L591.871,260.087L592.072,260.648L592.274,261.208L592.476,261.769L592.68,262.33L592.884,262.89L593.089,263.451L593.295,264.012L593.709,265.134L594.127,266.256L594.337,266.816L594.548,267.377L594.76,267.938L594.972,268.498L595.185,269.057L595.614,270.179L596.045,271.298L596.479,272.417L596.916,273.535L597.356,274.652L597.798,275.767L598.243,276.882L598.69,277.994L599.139,279.106L599.591,280.215L600.045,281.323L600.501,282.429L600.958,283.533L601.418,284.634L601.88,285.733L602.343,286.83L602.808,287.924L603.274,289.015L603.742,290.104L604.211,291.189L604.682,292.271L605.154,293.351L605.627,294.426L606.101,295.499L606.576,296.567L607.052,297.632L607.528,298.693L608.006,299.751L608.484,300.803L608.962,301.852L609.441,302.896L609.921,303.936L610.401,304.971L610.881,306.002L611.361,307.027L611.841,308.048L612.321,309.063L612.801,310.073L613.281,311.078L613.761,312.077L614.24,313.071L614.718,314.058L615.197,315.04L615.674,316.016L616.151,316.986L616.627,317.949L617.102,318.906L617.576,319.856L618.049,320.8L618.521,321.737L618.992,322.667L619.462,323.59L619.93,324.506L620.396,325.414L620.862,326.315L621.325,327.208L621.787,328.094L622.246,328.972L622.704,329.842L623.16,330.703L623.614,331.557L624.066,332.402L624.515,333.239L624.963,334.067L625.407,334.886L625.849,335.697L626.289,336.498L626.726,337.291L627.16,338.074L627.591,338.847L628.02,339.612L628.445,340.366L628.867,341.111L629.289,341.85L629.766,342.688L630.242,343.525L630.713,344.357L631.18,345.185L631.641,346.008L632.098,346.827L632.551,347.64L632.998,348.449L633.441,349.253L633.88,350.053L634.314,350.848L634.743,351.638L635.167,352.423L635.587,353.204L636.003,353.981L636.414,354.752L636.82,355.52L637.222,356.282L637.62,357.04L638.013,357.793L638.401,358.542L638.785,359.287L639.165,360.027L639.54,360.762L639.911,361.493L640.277,362.22L640.639,362.942L640.997,363.659L641.35,364.372L641.699,365.081L642.044,365.785L642.384,366.486L642.721,367.181L643.052,367.873L643.38,368.559L643.703,369.242L644.022,369.92L644.337,370.594L644.648,371.264L644.954,371.93L645.256,372.591L645.554,373.248L645.848,373.901L646.138,374.549L646.424,375.194L646.705,375.834L646.983,376.47L647.256,377.102L647.525,377.73L647.791,378.354L648.052,378.973L648.309,379.589L648.562,380.2L648.811,380.808L649.057,381.411L649.298,382.01L649.535,382.605L649.768,383.197L649.998,383.784L650.223,384.368L650.445,384.947L650.663,385.523L650.876,386.094L651.086,386.662L651.292,387.226L651.495,387.786L651.693,388.343L651.888,388.895L652.079,389.443L652.266,389.988L652.449,390.529L652.628,391.067L652.804,391.6L652.976,392.13L653.144,392.656L653.309,393.178L653.47,393.697L653.627,394.212L653.781,394.724L653.93,395.232L654.077,395.736L654.219,396.237L654.358,396.734L654.493,397.228L654.625,397.718L654.753,398.205L654.878,398.688L654.999,399.168L655.116,399.644L655.23,400.117L655.34,400.586L655.447,401.053L655.55,401.515L655.649,401.975L655.746,402.431L655.838,402.884L655.927,403.333L656.013,403.78L656.095,404.223L656.174,404.663L656.249,405.099L656.321,405.533L656.389,405.964L656.454,406.391L656.515,406.815L656.573,407.236L656.627,407.654L656.678,408.069L656.726,408.481L656.77,408.89L656.811,409.296L656.848,409.699L656.882,410.1L656.913,410.497L656.94,410.891L656.963,411.283L656.983,411.672L657,412.058L657.013,412.44L657.023,412.816L657.027,413.011L657.03,413.198L657.031,413.386L657.033,413.574L657.033,413.76L657.032,413.945L657.03,414.13L657.028,414.315L657.025,414.499L657.021,414.682L657.016,414.864L657.01,415.046L657.003,415.227L656.995,415.406L656.987,415.587L656.977,415.766L656.967,415.944L656.956,416.121L656.944,416.299L656.931,416.475L656.917,416.651L656.903,416.826L656.887,417.001L656.871,417.175L656.853,417.348L656.835,417.52L656.816,417.692L656.796,417.864L656.775,418.034L656.754,418.204L656.731,418.374L656.707,418.542L656.683,418.711L656.657,418.878L656.631,419.045L656.604,419.211L656.576,419.377L656.547,419.542L656.517,419.705L656.486,419.87L656.455,420.033L656.422,420.195L656.388,420.357L656.354,420.518L656.319,420.678L656.282,420.838L656.245,420.997L656.207,421.157L656.168,421.314L656.128,421.471L656.087,421.628L656.045,421.784L656.002,421.94L655.958,422.095L655.914,422.248L655.868,422.402L655.821,422.555L655.774,422.707L655.725,422.859L655.676,423.009L655.625,423.16L655.574,423.309L655.522,423.458L655.468,423.606L655.414,423.753L655.359,423.9L655.302,424.047L655.246,424.192L655.188,424.336L655.129,424.481L655.069,424.624L655.008,424.766L654.946,424.91L654.883,425.05L654.82,425.19L654.754,425.331L654.689,425.47L654.623,425.607L654.554,425.746L654.486,425.883L654.417,426.019L654.346,426.154L654.275,426.289L654.202,426.423L654.129,426.556L654.055,426.689L653.979,426.82L653.904,426.95L653.826,427.081L653.748,427.211L653.669,427.339L653.589,427.466L653.508,427.594L653.426,427.72L653.344,427.845L653.261,427.969L653.176,428.092L653.09,428.215L653.004,428.338L652.916,428.459L652.828,428.579L652.74,428.698L652.65,428.816L652.559,428.933L652.468,429.05L652.375,429.167L652.281,429.281L652.187,429.395L652.092,429.509L651.996,429.621L651.899,429.732L651.801,429.843L651.703,429.952L651.605,430.06L651.504,430.168L651.403,430.275L651.302,430.38L651.199,430.485L651.096,430.589L650.992,430.692L650.887,430.794L650.782,430.895L650.676,430.995L650.568,431.094L650.461,431.192L650.353,431.289L650.244,431.385L650.133,431.481L650.023,431.575L649.912,431.668L649.8,431.761L649.687,431.852L649.574,431.942L649.46,432.031L649.346,432.119L649.23,432.207L649.115,432.293L648.999,432.378L648.882,432.463L648.764,432.546L648.646,432.629L648.527,432.71L648.408,432.791L648.289,432.87L648.168,432.948L648.047,433.026L647.926,433.102L647.803,433.178L647.681,433.253L647.558,433.326L647.434,433.399L647.311,433.47L647.187,433.541L647.061,433.611L646.935,433.68L646.81,433.747L646.683,433.814L646.556,433.88L646.429,433.945L646.302,434.009L646.174,434.072L646.045,434.134L645.916,434.195L645.787,434.255L645.657,434.315L645.526,434.373L645.396,434.431L645.266,434.487L645.134,434.543L644.995,434.601L644.738,434.704L644.473,434.807L644.205,434.907L643.937,435.003L643.667,435.096L643.396,435.185L643.124,435.271L642.851,435.353L642.576,435.433L642.301,435.508L642.024,435.581L641.746,435.651L641.467,435.717L641.188,435.78L640.907,435.84L640.625,435.897L640.342,435.952L640.059,436.003L639.774,436.051L639.489,436.096L639.202,436.139L638.915,436.179L638.627,436.215L638.338,436.25L638.048,436.281L637.757,436.31L637.465,436.336L637.173,436.36L636.88,436.381L636.586,436.399L636.291,436.415L635.996,436.428L635.699,436.439L635.402,436.448L635.104,436.454L634.806,436.458L634.506,436.459L634.206,436.458L633.905,436.455L633.604,436.449L633.302,436.441L632.998,436.431L632.694,436.419L632.39,436.405L632.085,436.388L631.779,436.37L631.472,436.349L631.165,436.326L630.857,436.301L630.548,436.274L630.239,436.245L629.929,436.214L629.618,436.181L629.307,436.146L628.995,436.109L628.682,436.07L628.369,436.029L628.054,435.986L627.74,435.941L627.425,435.895L627.109,435.846L626.793,435.796L626.476,435.744L626.158,435.69L625.84,435.635L625.521,435.577L625.202,435.518L624.881,435.457L624.561,435.395L624.24,435.33L623.918,435.264L623.596,435.197L623.273,435.127L622.95,435.056L622.626,434.984L622.302,434.909L621.977,434.834L621.652,434.756L621.326,434.677L621,434.597L620.673,434.515L620.346,434.431L620.019,434.346L619.691,434.259L619.362,434.171L619.033,434.081L618.704,433.99L618.374,433.897L618.044,433.803L617.714,433.708L617.383,433.611L617.052,433.513L616.72,433.413L616.388,433.312L616.056,433.21L615.723,433.106L615.391,433.001L615.058,432.894L614.724,432.786L614.39,432.677L614.056,432.567L613.722,432.455L613.388,432.342L613.053,432.228L612.718,432.113L612.383,431.996L612.047,431.878L611.712,431.759L611.376,431.639L611.04,431.518L610.704,431.395L610.368,431.271L610.031,431.146L609.695,431.02L609.358,430.893L609.022,430.765L608.685,430.636L608.348,430.505L608.011,430.374L607.674,430.241L607.337,430.108L607,429.973L606.663,429.837L606.326,429.7L605.988,429.563L605.651,429.424L605.314,429.284L604.977,429.144L604.64,429.002L604.303,428.859L603.967,428.716L603.63,428.572L603.293,428.426L602.957,428.28L602.62,428.133L602.284,427.985L601.947,427.836L601.612,427.686L601.276,427.536L600.94,427.385L600.605,427.232L600.27,427.079L599.935,426.926L599.6,426.771L599.266,426.616L598.931,426.46L598.597,426.303L598.264,426.145L597.93,425.987L597.597,425.828L597.263,425.667L596.6,425.347L595.937,425.023L595.276,424.696L594.616,424.367L593.958,424.035L593.302,423.701L592.648,423.365L591.996,423.027L591.346,422.687L590.699,422.344L590.054,422L589.411,421.655L588.771,421.307L588.133,420.958L587.499,420.608L586.867,420.256L586.239,419.903L585.613,419.548L584.991,419.193L584.372,418.836L583.756,418.479L583.145,418.12L582.536,417.761L581.932,417.401L581.331,417.041L580.734,416.68L580.142,416.319L579.553,415.957L578.969,415.595L578.389,415.233L577.814,414.871L577.243,414.509L576.677,414.148L576.116,413.786L575.559,413.425L575.008,413.064L574.462,412.703L573.921,412.343L573.385,411.983L572.854,411.625L572.33,411.267L571.811,410.91L571.297,410.554L570.789,410.199L570.287,409.845L569.792,409.492L569.302,409.141L568.819,408.791L568.342,408.442L567.871,408.095L567.406,407.75L566.949,407.406L566.498,407.064L566.053,406.723L565.616,406.385L565.185,406.048L564.762,405.713L564.345,405.38L563.936,405.05L563.534,404.721L563.139,404.395L562.752,404.07L562.375,403.751L562.185,403.588L562,403.429L561.816,403.269L561.635,403.111L561.456,402.953L561.278,402.796L561.102,402.639L560.928,402.483L560.757,402.327L560.587,402.172L560.419,402.018L560.253,401.864L560.089,401.71L559.927,401.557L559.766,401.405L559.608,401.253L559.453,401.102L559.298,400.951L559.145,400.801L558.995,400.651L558.847,400.502L558.701,400.353L558.556,400.204L558.414,400.057L558.273,399.909L558.135,399.762L557.998,399.614L557.863,399.467L557.731,399.321L557.611,399.187L556.659,397.575L556.397,395.72L556.864,393.906L557.99,392.41L559.603,391.458L561.457,391.196L563.271,391.663L564.768,392.789L564.867,392.899L564.958,393L565.052,393.102L565.148,393.206L565.248,393.312L565.35,393.42L565.456,393.53L565.564,393.641L565.675,393.754L565.789,393.869L566.025,394.103L566.146,394.221L566.271,394.342L566.399,394.464L566.528,394.588L566.661,394.712L566.796,394.839L566.933,394.966L567.072,395.094L567.215,395.224L567.36,395.356L567.507,395.488L567.656,395.621L567.808,395.756L567.963,395.892L568.12,396.029L568.278,396.166L568.439,396.305L568.6,396.443L568.937,396.728L569.279,397.015L569.631,397.305L569.99,397.599L570.358,397.897L570.734,398.197L571.119,398.501L571.511,398.808L571.911,399.117L572.318,399.429L572.733,399.744L573.156,400.062L573.585,400.381L574.022,400.703L574.465,401.027L574.916,401.353L575.373,401.681L575.837,402.011L576.306,402.343L576.783,402.676L577.265,403.01L577.753,403.346L578.248,403.683L578.748,404.021L579.253,404.36L579.765,404.701L580.281,405.042L580.803,405.383L581.33,405.726L581.862,406.069L582.399,406.412L582.941,406.755L583.487,407.099L584.038,407.443L584.593,407.787L585.153,408.131L585.717,408.474L586.284,408.818L586.856,409.16L587.431,409.503L588.01,409.845L588.593,410.186L589.179,410.526L589.768,410.866L590.361,411.204L590.956,411.542L591.555,411.878L592.156,412.213L592.76,412.546L593.366,412.879L593.975,413.209L594.586,413.538L595.2,413.865L595.815,414.19L596.433,414.514L597.052,414.835L597.673,415.154L598.296,415.471L598.92,415.785L599.545,416.097L600.172,416.407L600.799,416.714L601.43,417.019L601.743,417.169L602.373,417.469L602.688,417.618L603.003,417.766L603.318,417.913L603.634,418.06L603.949,418.205L604.581,418.495L604.897,418.638L605.529,418.922L605.845,419.063L606.161,419.203L606.476,419.342L606.792,419.48L607.108,419.617L607.424,419.753L607.739,419.888L608.055,420.023L608.685,420.289L609.001,420.42L609.315,420.551L609.63,420.68L609.944,420.809L610.259,420.936L610.573,421.063L610.886,421.188L611.2,421.312L611.826,421.558L612.139,421.679L612.451,421.799L613.075,422.035L613.386,422.152L613.696,422.267L614.007,422.381L614.316,422.494L614.626,422.606L614.935,422.717L615.243,422.826L615.551,422.934L615.859,423.041L616.166,423.147L616.778,423.355L617.083,423.457L617.388,423.557L617.691,423.657L618.297,423.851L618.599,423.947L618.9,424.041L619.201,424.133L619.5,424.224L619.799,424.314L620.098,424.403L620.395,424.49L620.692,424.576L620.987,424.66L621.282,424.743L621.576,424.824L621.869,424.904L622.162,424.982L622.453,425.059L622.744,425.135L623.033,425.209L623.609,425.353L623.895,425.422L624.18,425.49L624.465,425.556L624.748,425.621L625.03,425.684L625.311,425.746L625.591,425.806L625.87,425.865L626.147,425.922L626.424,425.977L626.699,426.031L626.972,426.083L627.245,426.133L627.516,426.182L627.786,426.229L628.055,426.275L628.322,426.319L628.588,426.361L628.853,426.401L629.116,426.44L629.377,426.477L629.637,426.513L629.896,426.547L630.153,426.579L630.409,426.609L630.663,426.638L630.916,426.664L631.167,426.69L631.416,426.713L631.664,426.735L631.91,426.755L632.154,426.773L632.397,426.789L632.637,426.804L632.877,426.817L633.114,426.828L633.35,426.838L633.583,426.846L633.816,426.851L634.045,426.856L634.273,426.858L634.5,426.859L634.724,426.858L634.946,426.855L635.167,426.851L635.385,426.844L635.601,426.836L635.815,426.827L636.027,426.815L636.238,426.802L636.445,426.787L636.651,426.771L636.855,426.752L637.056,426.732L637.256,426.711L637.453,426.687L637.647,426.662L637.84,426.636L638.031,426.608L638.218,426.578L638.404,426.546L638.588,426.513L638.769,426.478L638.948,426.442L639.124,426.404L639.298,426.365L639.47,426.324L639.64,426.282L639.807,426.238L639.971,426.192L640.134,426.146L640.294,426.097L640.451,426.048L640.606,425.997L640.759,425.944L640.91,425.89L641.058,425.835L641.204,425.778L641.356,425.717L641.419,425.691L641.489,425.661L641.559,425.631L641.629,425.6L641.697,425.57L641.765,425.539L641.832,425.507L641.899,425.475L641.966,425.443L642.031,425.411L642.097,425.378L642.163,425.345L642.226,425.311L642.289,425.278L642.353,425.244L642.416,425.209L642.477,425.175L642.539,425.14L642.601,425.104L642.661,425.069L642.722,425.033L642.781,424.997L642.84,424.96L642.899,424.923L642.957,424.886L643.014,424.849L643.072,424.81L643.129,424.772L643.185,424.733L643.24,424.695L643.295,424.656L643.35,424.616L643.405,424.576L643.459,424.535L643.512,424.495L643.566,424.454L643.618,424.413L643.671,424.371L643.723,424.329L643.773,424.287L643.825,424.244L643.876,424.2L643.925,424.157L643.975,424.113L644.025,424.069L644.074,424.024L644.123,423.979L644.171,423.933L644.22,423.887L644.267,423.841L644.314,423.794L644.361,423.747L644.408,423.699L644.455,423.651L644.5,423.602L644.545,423.554L644.591,423.504L644.636,423.453L644.681,423.403L644.725,423.352L644.769,423.3L644.813,423.249L644.856,423.196L644.9,423.143L644.942,423.09L644.984,423.036L645.027,422.981L645.069,422.925L645.111,422.869L645.152,422.813L645.193,422.756L645.234,422.699L645.274,422.641L645.314,422.582L645.354,422.522L645.394,422.462L645.433,422.401L645.472,422.34L645.511,422.279L645.55,422.215L645.588,422.152L645.625,422.089L645.663,422.024L645.701,421.958L645.738,421.892L645.775,421.825L645.811,421.758L645.847,421.69L645.883,421.621L645.919,421.551L645.955,421.48L645.989,421.41L646.024,421.337L646.059,421.264L646.092,421.191L646.126,421.116L646.16,421.04L646.193,420.965L646.225,420.889L646.258,420.81L646.29,420.732L646.322,420.653L646.354,420.572L646.385,420.491L646.415,420.41L646.446,420.327L646.476,420.243L646.506,420.158L646.535,420.073L646.564,419.987L646.593,419.899L646.621,419.811L646.648,419.722L646.676,419.633L646.703,419.542L646.73,419.449L646.756,419.356L646.782,419.264L646.807,419.169L646.832,419.073L646.857,418.976L646.881,418.879L646.904,418.781L646.927,418.682L646.95,418.581L646.973,418.48L646.995,418.378L647.016,418.275L647.037,418.17L647.058,418.065L647.077,417.96L647.097,417.852L647.116,417.744L647.134,417.634L647.152,417.524L647.17,417.413L647.187,417.3L647.203,417.188L647.219,417.073L647.235,416.959L647.25,416.842L647.264,416.725L647.278,416.608L647.291,416.488L647.304,416.367L647.316,416.246L647.327,416.124L647.338,416.001L647.349,415.876L647.359,415.751L647.368,415.625L647.376,415.498L647.384,415.369L647.392,415.239L647.399,415.109L647.405,414.978L647.411,414.844L647.416,414.711L647.42,414.577L647.424,414.44L647.427,414.304L647.429,414.166L647.431,414.028L647.432,413.888L647.433,413.746L647.433,413.604L647.432,413.462L647.43,413.318L647.428,413.172L647.425,413.032L647.418,412.732L647.407,412.432L647.394,412.128L647.378,411.82L647.359,411.508L647.338,411.192L647.313,410.871L647.286,410.547L647.255,410.218L647.222,409.885L647.185,409.547L647.146,409.206L647.103,408.86L647.058,408.51L647.009,408.156L646.957,407.798L646.902,407.435L646.844,407.068L646.783,406.697L646.718,406.322L646.65,405.943L646.579,405.559L646.505,405.171L646.427,404.779L646.346,404.382L646.262,403.982L646.174,403.577L646.083,403.168L645.988,402.755L645.89,402.337L645.788,401.915L645.683,401.489L645.575,401.058L645.463,400.624L645.347,400.185L645.228,399.742L645.106,399.294L644.98,398.843L644.85,398.387L644.716,397.926L644.579,397.462L644.439,396.993L644.294,396.52L644.146,396.042L643.994,395.56L643.839,395.075L643.68,394.584L643.517,394.089L643.35,393.59L643.179,393.087L643.005,392.579L642.827,392.067L642.645,391.55L642.459,391.03L642.269,390.504L642.076,389.974L641.878,389.441L641.677,388.902L641.472,388.36L641.263,387.813L641.049,387.261L640.832,386.705L640.611,386.144L640.386,385.58L640.157,385.01L639.924,384.436L639.687,383.858L639.445,383.276L639.2,382.689L638.951,382.097L638.697,381.501L638.439,380.9L638.178,380.295L637.912,379.685L637.642,379.071L637.367,378.453L637.089,377.83L636.806,377.202L636.519,376.569L636.228,375.933L635.933,375.291L635.633,374.645L635.33,373.995L635.021,373.339L634.709,372.68L634.392,372.015L634.071,371.346L633.746,370.673L633.416,369.994L633.082,369.311L632.743,368.624L632.4,367.931L632.053,367.234L631.701,366.533L631.345,365.826L630.984,365.115L630.619,364.399L630.249,363.679L629.875,362.954L629.496,362.224L629.113,361.489L628.725,360.749L628.333,360.005L627.936,359.256L627.534,358.502L627.128,357.743L626.718,356.98L626.302,356.211L625.882,355.438L625.458,354.66L625.028,353.877L624.594,353.089L624.156,352.297L623.712,351.499L623.264,350.697L622.811,349.89L622.354,349.077L621.891,348.26L621.424,347.438L620.95,346.606L620.521,345.855L620.088,345.09L619.651,344.316L619.212,343.532L618.769,342.738L618.325,341.936L617.877,341.124L617.427,340.304L616.975,339.475L616.52,338.637L616.063,337.791L615.604,336.936L615.143,336.073L614.679,335.202L614.214,334.323L613.747,333.435L613.278,332.54L612.808,331.637L612.335,330.727L611.861,329.809L611.386,328.883L610.909,327.951L610.431,327.011L609.952,326.065L609.472,325.111L608.99,324.151L608.508,323.184L608.025,322.21L607.54,321.23L607.055,320.244L606.57,319.252L606.084,318.254L605.597,317.249L605.11,316.239L604.622,315.224L604.134,314.202L603.647,313.175L603.159,312.143L602.67,311.106L602.183,310.064L601.695,309.017L601.207,307.965L600.72,306.908L600.233,305.847L599.746,304.781L599.261,303.711L598.775,302.636L598.291,301.558L597.807,300.475L597.324,299.389L596.843,298.299L596.362,297.205L595.882,296.108L595.403,295.008L594.926,293.904L594.45,292.797L593.976,291.687L593.503,290.575L593.032,289.459L592.563,288.341L592.095,287.22L591.629,286.097L591.165,284.972L590.703,283.844L590.244,282.715L589.786,281.583L589.331,280.45L588.878,279.315L588.427,278.179L587.979,277.041L587.534,275.902L587.091,274.761L586.652,273.62L586.215,272.479L585.997,271.906L585.781,271.334L585.565,270.762L585.349,270.19L585.135,269.618L584.921,269.045L584.709,268.473L584.497,267.9L584.285,267.328L584.075,266.755L583.866,266.182L583.657,265.609L583.449,265.036L583.242,264.464L583.036,263.891L582.831,263.318L582.627,262.745L582.423,262.172L582.221,261.6L582.019,261.027L581.819,260.454L581.619,259.882L581.421,259.309L581.223,258.737L581.026,258.165L580.831,257.593L580.636,257.022L580.442,256.45L580.25,255.879L580.058,255.308L579.867,254.737L579.678,254.166L579.489,253.596L579.302,253.026L579.116,252.456L578.93,251.887L578.746,251.318L578.563,250.749L578.381,250.181L578.201,249.613L578.021,249.045L577.843,248.478L577.665,247.911L577.489,247.344L577.314,246.778L577.141,246.213L576.968,245.648L576.797,245.083L576.627,244.519L576.458,243.956L576.291,243.393L576.124,242.83L575.959,242.268L575.796,241.707L575.633,241.146L575.472,240.586L575.312,240.027L575.154,239.468L574.997,238.91L574.841,238.352L574.686,237.795L574.533,237.239L574.382,236.683L574.231,236.129L574.082,235.575L573.935,235.021L573.789,234.469L573.644,233.917L573.501,233.366L573.359,232.815L573.219,232.266L573.08,231.718L572.943,231.17L572.807,230.623L572.672,230.077L572.54,229.532L572.408,228.988L572.278,228.444L572.15,227.902L572.024,227.36L571.898,226.82L571.775,226.28L571.653,225.742L571.533,225.204L571.414,224.667L571.297,224.132L571.181,223.598L571.068,223.064L570.955,222.532L570.845,222L570.736,221.47L570.629,220.941L570.523,220.413L570.42,219.886L570.318,219.36L570.217,218.835L570.119,218.312L570.022,217.79L569.927,217.269L569.834,216.748L569.742,216.23L569.653,215.713L569.565,215.196L569.479,214.681L569.395,214.168L569.312,213.655L569.232,213.144L569.153,212.634L569.077,212.126L569.002,211.619L568.929,211.113L568.858,210.608L568.789,210.105L568.722,209.603L568.656,209.103L568.593,208.604L568.532,208.106L568.473,207.61L568.415,207.115L568.36,206.622L568.307,206.13L568.256,205.64L568.207,205.151L568.159,204.664L568.114,204.178L568.072,203.694L568.031,203.211L567.992,202.73L567.955,202.25L567.921,201.772L567.889,201.295L567.859,200.82L567.831,200.347L567.805,199.875L567.781,199.404L567.76,198.936L567.741,198.469L567.724,198.003L567.71,197.54L567.697,197.078L567.688,196.617L567.68,196.159L567.675,195.702L567.672,195.246L567.671,194.793L567.673,194.341L567.677,193.89L567.683,193.442L567.692,192.996L567.704,192.551L567.718,192.108L567.734,191.666L567.753,191.227L567.774,190.789L567.798,190.353L567.825,189.919L567.854,189.486L567.885,189.056L567.919,188.627L567.956,188.2L567.996,187.775L568.038,187.352L568.083,186.931L568.13,186.512L568.18,186.094L568.233,185.679L568.289,185.265L568.348,184.854L568.409,184.444L568.473,184.036L568.541,183.63L568.611,183.226L568.683,182.825L568.759,182.425L568.837,182.032L568.879,181.829L568.92,181.631L568.962,181.434L569.005,181.237L569.048,181.041L569.093,180.846L569.138,180.65L569.183,180.456L569.23,180.262L569.278,180.068L569.326,179.875L569.375,179.682L569.425,179.491L569.475,179.299L569.527,179.108L569.579,178.918L569.631,178.729L569.685,178.539L569.74,178.35L569.795,178.161L569.852,177.974L569.908,177.788L569.967,177.6L570.025,177.414L570.085,177.229L570.145,177.044L570.206,176.859L570.268,176.676L570.331,176.492L570.395,176.309L570.459,176.128L570.525,175.946L570.591,175.765L570.658,175.585L570.726,175.405L570.796,175.225L570.866,175.046L570.936,174.868L571.008,174.691L571.08,174.514L571.154,174.338L571.228,174.163L571.303,173.987L571.379,173.812L571.456,173.639L571.534,173.466L571.613,173.293L571.693,173.121L571.774,172.949L571.855,172.779L571.938,172.609L572.021,172.439L572.106,172.27L572.191,172.102L572.277,171.935L572.365,171.768L572.453,171.602L572.542,171.436L572.633,171.271L572.724,171.107L572.816,170.944L572.909,170.782L573.003,170.619L573.098,170.458L573.194,170.298L573.291,170.137L573.389,169.978L573.488,169.82L573.588,169.662L573.689,169.505L573.792,169.348L573.894,169.193L573.998,169.039L574.103,168.885L574.209,168.732L574.316,168.579L574.424,168.428L574.534,168.276L574.644,168.126L574.755,167.977L574.867,167.829L574.98,167.681L575.094,167.535L575.21,167.389L575.326,167.243L575.443,167.099L575.562,166.956L575.681,166.813L575.801,166.671L575.922,166.531L576.045,166.391L576.169,166.251L576.293,166.114L576.418,165.976L576.545,165.84L576.673,165.705L576.802,165.57L576.931,165.437L577.061,165.304L577.194,165.172L577.326,165.042L577.46,164.912L577.595,164.784L577.73,164.656L577.868,164.529L578.005,164.403L578.144,164.278L578.284,164.155L578.425,164.032L578.567,163.91L578.71,163.789L578.853,163.67L578.998,163.551L579.144,163.434L579.291,163.318L579.439,163.202L579.588,163.088L579.737,162.975L579.888,162.863L580.04,162.751L580.193,162.641L580.347,162.532L580.501,162.425L580.657,162.318L580.814,162.212L580.971,162.108L581.129,162.005L581.289,161.903L581.45,161.801L581.611,161.702L581.773,161.603L581.936,161.506L582.1,161.409L582.265,161.314L582.431,161.22L582.598,161.127L582.766,161.035L582.934,160.945L583.103,160.856L583.274,160.767L583.445,160.68L583.617,160.595L583.79,160.51L583.964,160.427L584.139,160.345L584.314,160.264L584.491,160.184L584.668,160.106L584.846,160.028L585.025,159.952L585.205,159.877L585.386,159.803L585.567,159.731L585.749,159.66L585.932,159.59L586.116,159.521L586.3,159.453L586.486,159.387L586.672,159.322L586.859,159.258L587.047,159.195L587.236,159.134L587.425,159.074L587.615,159.015L587.806,158.957L587.998,158.9L588.19,158.845L588.384,158.791L588.578,158.738L588.772,158.686L588.968,158.636L589.164,158.587L589.361,158.539L589.559,158.492L589.757,158.446L589.957,158.402L590.157,158.359L590.358,158.317L590.559,158.277L590.761,158.237L590.964,158.199L591.168,158.162L591.372,158.126L591.577,158.092L591.783,158.058L591.99,158.026L592.197,157.995L592.405,157.965L592.614,157.937L592.824,157.91L593.034,157.884L593.245,157.859L593.456,157.835L593.669,157.812L593.882,157.791L594.096,157.771L594.31,157.752L594.525,157.734L594.742,157.718L594.958,157.703L595.176,157.689L595.394,157.676L595.613,157.664L595.832,157.653L596.053,157.644L596.274,157.636L596.495,157.629L596.718,157.623L596.941,157.618L597.165,157.615L597.39,157.613L597.615,157.612L597.841,157.612Z" style="fill:white;"/>
    </g>
</svg>
