<?xml version="1.0" standalone="no"?>
<!DOCTYPE svg PUBLIC "-//W3C//DTD SVG 1.1//EN" "http://www.w3.org/Graphics/SVG/1.1/DTD/svg11.dtd">
<svg width="100%" height="100%" viewBox="0 0 1079 936" version="1.1" xmlns="http://www.w3.org/2000/svg" xmlns:xlink="http://www.w3.org/1999/xlink" xml:space="preserve" style="fill-rule:evenodd;clip-rule:evenodd;stroke-linejoin:round;stroke-miterlimit:1.41421;">
    <g id="Monocle">
        <g transform="matrix(1,0,0,1.04905,-15.5285,-16.9284)">
            <path d="M623.973,169.754L624.281,169.757L624.59,169.764L624.898,169.772L625.206,169.784L625.513,169.798L625.821,169.815L626.128,169.835L626.435,169.857L626.741,169.882L627.048,169.91L627.354,169.94L627.659,169.972L627.964,170.007L628.269,170.044L628.574,170.084L628.878,170.126L629.182,170.17L629.485,170.217L629.788,170.266L630.091,170.317L630.394,170.37L630.696,170.426L630.997,170.483L631.299,170.543L631.6,170.605L631.9,170.669L632.2,170.734L632.5,170.802L632.799,170.872L633.098,170.944L633.397,171.017L633.695,171.093L633.992,171.17L634.29,171.249L634.587,171.33L634.883,171.413L635.179,171.497L635.475,171.583L635.77,171.671L636.065,171.76L636.359,171.851L636.653,171.944L636.947,172.038L637.24,172.134L637.533,172.231L637.825,172.33L638.117,172.43L638.409,172.532L638.7,172.635L638.99,172.74L639.281,172.846L639.57,172.953L639.86,173.061L640.149,173.171L640.437,173.282L640.725,173.395L641.013,173.509L641.3,173.623L641.586,173.74L641.873,173.857L642.159,173.975L642.444,174.095L642.729,174.215L643.013,174.337L643.298,174.46L643.581,174.584L643.864,174.708L644.147,174.834L644.429,174.961L644.711,175.088L644.992,175.217L645.273,175.347L645.553,175.477L645.833,175.608L646.112,175.74L646.391,175.873L646.669,176.007L646.947,176.141L647.224,176.276L647.501,176.412L647.778,176.549L648.054,176.686L648.329,176.824L648.603,176.962L648.878,177.102L649.152,177.241L649.427,177.383L649.969,177.664L650.512,177.948L651.053,178.235L651.591,178.523L652.127,178.812L652.661,179.103L653.192,179.395L653.72,179.688L654.247,179.982L654.771,180.277L655.292,180.572L655.811,180.867L656.327,181.163L656.84,181.459L657.351,181.754L657.859,182.05L658.364,182.344L658.867,182.639L659.861,183.224L660.844,183.805L661.814,184.38L662.771,184.947L663.714,185.506L664.644,186.055L665.102,186.325L665.556,186.592L666.007,186.856L666.454,187.116L666.897,187.373L667.335,187.626L667.769,187.875L668.199,188.12L668.625,188.36L669.045,188.596L669.461,188.828L669.872,189.055L670.279,189.276L670.68,189.493L671.076,189.704L671.471,189.912L672.629,190.516L673.209,190.817L673.789,191.118L674.369,191.418L674.95,191.717L675.53,192.014L676.11,192.31L676.69,192.605L677.27,192.899L677.85,193.191L678.43,193.481L679.011,193.77L679.591,194.057L680.171,194.342L680.752,194.626L681.333,194.907L681.914,195.186L682.496,195.464L683.078,195.739L683.659,196.011L684.242,196.282L684.825,196.55L685.408,196.815L685.991,197.078L686.575,197.338L687.162,197.597L687.452,197.724L687.744,197.851L688.037,197.977L688.33,198.103L688.623,198.228L688.916,198.352L689.209,198.475L689.502,198.598L689.796,198.72L690.09,198.841L691.022,199.223L691.955,199.603L692.888,199.982L693.822,200.359L694.757,200.734L695.692,201.107L696.627,201.478L697.563,201.847L698.5,202.214L699.437,202.579L700.375,202.941L701.313,203.302L702.252,203.659L703.191,204.015L704.131,204.368L705.072,204.718L706.013,205.066L706.955,205.411L707.899,205.754L708.369,205.924L708.84,206.093L709.312,206.262L709.784,206.43L710.256,206.598L710.729,206.764L711.201,206.93L711.674,207.095L712.147,207.26L712.62,207.423L713.093,207.586L713.566,207.748L714.04,207.909L714.513,208.07L714.987,208.23L715.461,208.389L715.936,208.547L716.41,208.704L716.885,208.86L717.359,209.016L717.834,209.171L718.309,209.325L718.785,209.478L719.261,209.63L719.736,209.781L720.209,209.931L720.489,210.018L720.766,210.104L721.045,210.188L721.323,210.272L721.603,210.355L721.883,210.437L722.163,210.518L722.445,210.598L722.726,210.677L723.009,210.755L723.292,210.833L723.575,210.91L723.86,210.986L724.145,211.061L724.43,211.135L724.716,211.209L725.003,211.282L725.29,211.354L725.578,211.426L725.866,211.497L726.155,211.567L726.444,211.636L726.734,211.706L727.022,211.773L727.608,211.909L728.192,212.043L728.779,212.174L729.368,212.304L729.958,212.431L730.551,212.558L731.145,212.683L731.742,212.807L732.339,212.93L732.939,213.053L733.54,213.174L734.142,213.295L735.353,213.537L736.569,213.779L737.789,214.022L738.402,214.145L739.004,214.266L739.186,214.303L739.359,214.335L739.533,214.367L739.708,214.398L739.885,214.428L740.063,214.457L740.242,214.485L740.423,214.512L740.605,214.539L740.789,214.564L740.973,214.589L741.16,214.613L741.347,214.636L741.536,214.658L741.726,214.68L741.918,214.701L742.111,214.722L742.301,214.741L742.697,214.78L743.094,214.817L743.496,214.852L743.903,214.886L744.313,214.92L745.154,214.986L746.958,215.478L748.427,216.59L749.338,218.154L749.552,219.932L749.036,221.651L747.868,223.052L746.228,223.92L744.363,224.124L743.511,224.057L743.074,224.022L742.634,223.985L742.19,223.946L741.74,223.904L741.291,223.86L741.058,223.836L740.829,223.812L740.598,223.786L740.366,223.759L740.134,223.732L739.9,223.703L739.665,223.673L739.429,223.641L739.192,223.608L738.954,223.574L738.715,223.538L738.476,223.501L738.235,223.462L737.993,223.421L737.751,223.378L737.507,223.333L737.263,223.287L737.029,223.24L736.417,223.117L735.814,222.996L734.602,222.754L733.385,222.512L732.163,222.268L731.549,222.145L730.934,222.02L730.318,221.895L729.7,221.768L729.082,221.639L728.463,221.508L727.842,221.376L727.22,221.241L726.598,221.104L725.975,220.965L725.351,220.823L724.729,220.678L724.414,220.604L724.101,220.529L723.788,220.454L723.475,220.378L723.161,220.301L722.848,220.223L722.534,220.144L722.221,220.064L721.907,219.983L721.593,219.901L721.279,219.819L720.965,219.735L720.651,219.65L720.337,219.564L720.023,219.477L719.708,219.388L719.394,219.299L719.08,219.208L718.765,219.116L718.451,219.023L718.136,218.929L717.822,218.833L717.508,218.736L717.196,218.638L716.7,218.482L716.207,218.325L715.715,218.167L715.223,218.009L714.731,217.85L714.24,217.69L713.749,217.529L713.259,217.367L712.768,217.204L712.278,217.041L711.789,216.877L711.3,216.712L710.811,216.547L710.322,216.38L709.834,216.213L709.346,216.045L708.858,215.876L708.371,215.707L707.884,215.537L707.397,215.366L706.911,215.194L706.425,215.022L705.939,214.849L705.454,214.676L704.969,214.501L704.483,214.326L703.516,213.974L702.549,213.62L701.583,213.263L700.618,212.904L699.654,212.542L698.692,212.178L697.73,211.811L696.77,211.443L695.811,211.072L694.853,210.699L693.897,210.324L692.941,209.947L691.987,209.569L691.033,209.188L690.081,208.806L689.13,208.422L688.18,208.037L687.23,207.65L686.281,207.261L685.966,207.131L685.65,207L685.335,206.868L685.02,206.735L684.706,206.602L684.393,206.469L684.079,206.334L683.766,206.199L683.454,206.063L683.14,205.926L682.519,205.653L681.898,205.376L681.279,205.097L680.662,204.816L680.046,204.533L679.431,204.247L678.818,203.96L678.207,203.671L677.597,203.38L676.989,203.088L676.382,202.794L675.777,202.499L675.173,202.202L674.57,201.904L673.969,201.604L673.368,201.304L672.77,201.003L672.172,200.7L671.575,200.397L670.98,200.093L670.385,199.788L669.792,199.482L669.2,199.177L668.609,198.87L668.018,198.563L666.837,197.947L666.403,197.718L665.962,197.483L665.52,197.245L665.075,197.002L664.629,196.756L664.18,196.506L663.73,196.253L663.277,195.997L662.822,195.738L662.366,195.476L661.907,195.212L661.446,194.944L660.983,194.675L660.519,194.403L660.052,194.129L659.583,193.853L658.641,193.296L657.691,192.734L656.734,192.166L655.771,191.595L654.801,191.022L653.823,190.447L653.335,190.16L652.843,189.874L652.351,189.587L651.857,189.302L651.362,189.016L650.866,188.732L650.369,188.449L649.871,188.167L649.372,187.886L648.872,187.607L648.371,187.33L647.87,187.054L647.368,186.781L646.866,186.509L646.363,186.24L645.859,185.974L645.356,185.71L644.849,185.447L644.599,185.319L644.347,185.19L644.095,185.062L643.843,184.935L643.59,184.808L643.338,184.683L643.086,184.558L642.834,184.434L642.581,184.311L642.329,184.189L642.077,184.068L641.825,183.948L641.573,183.829L641.321,183.711L641.069,183.594L640.817,183.478L640.566,183.363L640.314,183.249L640.063,183.136L639.812,183.024L639.56,182.913L639.31,182.804L639.059,182.695L638.808,182.588L638.558,182.482L638.308,182.377L638.058,182.274L637.808,182.172L637.558,182.071L637.309,181.971L637.06,181.873L636.812,181.776L636.563,181.68L636.315,181.585L636.067,181.492L635.82,181.401L635.573,181.311L635.326,181.222L635.08,181.135L634.834,181.049L634.588,180.964L634.343,180.881L634.098,180.8L633.854,180.72L633.61,180.642L633.366,180.565L633.123,180.49L632.88,180.416L632.638,180.345L632.397,180.274L632.156,180.205L631.915,180.138L631.675,180.073L631.436,180.009L631.197,179.947L630.958,179.887L630.721,179.828L630.484,179.772L630.247,179.716L630.011,179.663L629.776,179.611L629.541,179.562L629.307,179.514L629.074,179.467L628.842,179.423L628.609,179.38L628.378,179.34L628.148,179.301L627.918,179.264L627.689,179.228L627.46,179.195L627.233,179.164L627.006,179.134L626.78,179.106L626.555,179.081L626.33,179.057L626.106,179.035L625.883,179.015L625.661,178.997L625.44,178.981L625.219,178.967L624.999,178.955L624.781,178.944L624.562,178.936L624.345,178.93L624.129,178.926L623.913,178.923L623.698,178.923L623.484,178.925L623.271,178.929L623.058,178.934L622.847,178.942L622.636,178.952L622.426,178.964L622.217,178.978L622.008,178.994L621.801,179.012L621.594,179.032L621.388,179.054L621.182,179.078L620.978,179.104L620.774,179.133L620.571,179.163L620.368,179.196L620.166,179.231L619.965,179.268L619.758,179.308L619.665,179.327L619.565,179.348L619.465,179.37L619.366,179.392L619.267,179.414L619.167,179.437L619.068,179.461L618.969,179.485L618.87,179.51L618.772,179.535L618.673,179.561L618.575,179.588L618.477,179.615L618.379,179.642L618.281,179.67L618.183,179.699L618.085,179.729L617.988,179.758L617.89,179.789L617.793,179.82L617.696,179.852L617.598,179.884L617.501,179.917L617.405,179.95L617.308,179.984L617.211,180.019L617.114,180.054L617.018,180.09L616.921,180.127L616.825,180.164L616.729,180.201L616.632,180.24L616.536,180.279L616.441,180.318L616.345,180.359L616.249,180.4L616.153,180.441L616.057,180.483L615.962,180.526L615.866,180.569L615.77,180.614L615.675,180.659L615.58,180.704L615.484,180.75L615.389,180.797L615.294,180.844L615.198,180.893L615.103,180.942L615.008,180.991L614.913,181.041L614.818,181.092L614.723,181.144L614.628,181.196L614.533,181.249L614.438,181.303L614.344,181.358L614.249,181.413L614.154,181.469L614.059,181.526L613.965,181.583L613.87,181.642L613.775,181.701L613.681,181.76L613.587,181.821L613.491,181.882L613.397,181.944L613.303,182.007L613.208,182.071L613.113,182.135L613.019,182.2L612.924,182.266L612.83,182.333L612.735,182.401L612.641,182.469L612.547,182.538L612.453,182.608L612.358,182.68L612.263,182.751L612.169,182.824L612.074,182.897L611.98,182.971L611.886,183.047L611.791,183.123L611.697,183.2L611.603,183.278L611.509,183.356L611.414,183.436L611.32,183.516L611.226,183.597L611.132,183.679L611.038,183.763L610.943,183.847L610.849,183.932L610.755,184.018L610.661,184.104L610.566,184.192L610.472,184.28L610.378,184.37L610.284,184.461L610.19,184.552L610.096,184.644L610.002,184.738L609.908,184.832L609.814,184.928L609.72,185.024L609.626,185.121L609.532,185.22L609.438,185.319L609.345,185.419L609.251,185.52L609.157,185.622L609.063,185.726L608.97,185.829L608.878,185.933L608.676,186.163L608.478,186.391L608.283,186.619L608.09,186.848L607.899,187.077L607.712,187.306L607.526,187.536L607.343,187.766L607.163,187.997L606.984,188.227L606.809,188.458L606.636,188.689L606.464,188.921L606.296,189.153L606.129,189.385L605.965,189.618L605.803,189.851L605.644,190.084L605.487,190.317L605.332,190.551L605.179,190.785L605.028,191.02L604.88,191.255L604.734,191.49L604.59,191.725L604.448,191.961L604.308,192.197L604.171,192.433L604.035,192.67L603.902,192.907L603.771,193.145L603.641,193.383L603.514,193.621L603.389,193.859L603.266,194.098L603.145,194.337L603.026,194.577L602.909,194.817L602.794,195.058L602.68,195.298L602.569,195.539L602.46,195.78L602.353,196.022L602.247,196.265L602.144,196.507L602.042,196.75L601.942,196.993L601.845,197.237L601.749,197.481L601.655,197.725L601.562,197.971L601.472,198.216L601.383,198.461L601.296,198.707L601.211,198.954L601.128,199.201L601.046,199.448L600.966,199.695L600.888,199.944L600.812,200.192L600.737,200.441L600.664,200.69L600.593,200.94L600.524,201.19L600.456,201.441L600.39,201.691L600.326,201.943L600.263,202.195L600.202,202.447L600.142,202.699L600.084,202.953L600.028,203.206L599.973,203.46L599.92,203.714L599.869,203.969L599.819,204.224L599.771,204.479L599.724,204.736L599.679,204.992L599.636,205.249L599.594,205.506L599.553,205.764L599.514,206.022L599.477,206.281L599.441,206.54L599.406,206.799L599.374,207.059L599.342,207.319L599.312,207.579L599.284,207.84L599.257,208.102L599.231,208.364L599.207,208.626L599.184,208.889L599.163,209.152L599.143,209.415L599.124,209.679L599.107,209.943L599.092,210.208L599.077,210.473L599.064,210.738L599.053,211.004L599.043,211.271L599.034,211.537L599.026,211.804L599.02,212.071L599.015,212.339L599.012,212.608L599.009,212.876L599.009,213.145L599.009,213.414L599.011,213.683L599.013,213.953L599.018,214.224L599.023,214.494L599.03,214.765L599.038,215.037L599.047,215.309L599.057,215.58L599.069,215.853L599.081,216.126L599.095,216.399L599.11,216.672L599.127,216.946L599.144,217.22L599.163,217.494L599.182,217.769L599.203,218.044L599.225,218.319L599.248,218.594L599.273,218.871L599.298,219.147L599.324,219.423L599.352,219.7L599.38,219.977L599.41,220.254L599.441,220.531L599.472,220.809L599.505,221.087L599.539,221.366L599.574,221.645L599.609,221.923L599.646,222.202L599.684,222.482L599.723,222.761L599.762,223.041L599.803,223.321L599.845,223.602L599.887,223.882L599.931,224.163L599.975,224.444L600.02,224.725L600.066,225.006L600.113,225.288L600.161,225.57L600.21,225.852L600.26,226.134L600.31,226.417L600.361,226.699L600.413,226.982L600.466,227.265L600.52,227.548L600.575,227.831L600.629,228.112L600.743,228.682L600.859,229.25L600.977,229.818L601.099,230.387L601.223,230.957L601.35,231.527L601.48,232.098L601.612,232.669L601.746,233.24L601.883,233.811L602.022,234.383L602.163,234.956L602.306,235.529L602.451,236.101L602.598,236.674L602.747,237.248L602.898,237.821L603.05,238.394L603.203,238.968L603.358,239.541L603.515,240.115L603.672,240.689L603.831,241.262L603.991,241.836L604.151,242.409L604.313,242.983L604.476,243.556L604.639,244.128L604.967,245.275L605.297,246.419L605.628,247.563L606.29,249.846L606.62,250.984L606.948,252.121L607.273,253.255L607.434,253.823L607.593,254.383L607.712,254.799L607.831,255.21L607.952,255.624L608.076,256.04L608.203,256.458L608.331,256.878L608.462,257.299L608.596,257.723L608.731,258.148L608.869,258.575L609.009,259.004L609.151,259.434L609.296,259.866L609.442,260.3L609.591,260.735L609.741,261.171L609.894,261.609L610.049,262.049L610.205,262.49L610.364,262.932L610.525,263.376L610.687,263.821L610.852,264.267L611.018,264.714L611.186,265.163L611.356,265.613L611.528,266.063L611.701,266.515L611.876,266.968L612.053,267.422L612.232,267.877L612.412,268.333L612.594,268.789L612.777,269.247L612.962,269.705L613.149,270.164L613.337,270.624L613.526,271.085L613.717,271.546L613.91,272.008L614.104,272.47L614.299,272.933L614.495,273.397L614.693,273.861L614.892,274.326L615.093,274.791L615.294,275.256L615.497,275.722L615.701,276.188L615.906,276.654L616.113,277.121L616.32,277.588L616.529,278.055L616.738,278.522L616.949,278.989L617.16,279.456L617.373,279.924L617.586,280.391L617.801,280.859L618.016,281.326L618.232,281.794L618.449,282.261L618.667,282.728L618.885,283.195L619.105,283.661L619.325,284.128L619.545,284.594L619.766,285.058L620.211,285.99L620.658,286.919L621.107,287.846L621.558,288.771L622.011,289.693L622.465,290.613L622.921,291.529L623.377,292.443L623.835,293.352L624.292,294.258L624.751,295.16L625.209,296.058L625.668,296.951L626.126,297.839L626.584,298.722L627.041,299.6L627.497,300.472L627.952,301.339L628.405,302.199L628.858,303.052L629.308,303.9L629.756,304.74L630.202,305.573L630.646,306.398L631.087,307.216L631.526,308.026L631.961,308.828L632.393,309.622L632.821,310.406L633.25,311.189L633.338,311.352L633.43,311.522L633.522,311.695L633.613,311.87L633.704,312.047L633.795,312.225L633.886,312.405L633.976,312.587L634.066,312.771L634.157,312.956L634.247,313.143L634.339,313.336L634.517,313.714L634.697,314.104L634.877,314.5L635.057,314.902L635.237,315.311L635.417,315.725L635.597,316.145L635.777,316.571L635.958,317.001L636.138,317.437L636.319,317.877L636.5,318.322L636.681,318.771L636.861,319.223L637.042,319.679L637.223,320.138L637.404,320.6L637.585,321.064L637.765,321.531L637.947,322L638.306,322.94L638.665,323.885L639.023,324.831L639.379,325.775L639.732,326.713L640.43,328.568L640.773,329.476L641.112,330.368L641.447,331.244L641.612,331.671L641.776,332.094L641.938,332.51L642.099,332.92L642.258,333.323L642.415,333.718L642.57,334.105L642.724,334.484L642.875,334.854L643.024,335.215L643.171,335.566L643.316,335.907L643.458,336.237L643.597,336.555L643.733,336.863L643.866,337.157L643.995,337.438L644.127,337.719L644.362,338.214L644.599,338.721L644.835,339.228L645.068,339.735L645.299,340.242L645.528,340.749L645.754,341.257L645.979,341.764L646.201,342.27L646.421,342.778L646.639,343.285L646.854,343.792L647.067,344.299L647.278,344.806L647.487,345.314L647.693,345.821L647.898,346.328L648.1,346.836L648.299,347.344L648.497,347.852L648.692,348.36L648.885,348.868L649.076,349.376L649.264,349.884L649.451,350.393L649.635,350.902L649.816,351.411L649.996,351.92L650.173,352.429L650.348,352.938L650.52,353.448L650.69,353.958L650.858,354.468L651.024,354.979L651.187,355.489L651.348,356L651.507,356.511L651.664,357.023L651.818,357.535L651.97,358.047L652.119,358.559L652.267,359.072L652.412,359.585L652.554,360.098L652.695,360.612L652.833,361.126L652.969,361.64L653.102,362.155L653.233,362.67L653.362,363.185L653.488,363.701L653.612,364.217L653.734,364.734L653.853,365.251L653.971,365.768L654.085,366.286L654.198,366.804L654.308,367.323L654.415,367.842L654.521,368.361L654.624,368.881L654.724,369.402L654.823,369.923L654.919,370.444L655.012,370.966L655.104,371.489L655.192,372.012L655.279,372.535L655.363,373.059L655.445,373.584L655.524,374.109L655.601,374.634L655.676,375.161L655.748,375.687L655.818,376.215L655.886,376.742L655.951,377.271L656.014,377.8L656.074,378.33L656.133,378.86L656.188,379.391L656.241,379.922L656.292,380.454L656.341,380.987L656.387,381.521L656.431,382.055L656.472,382.589L656.511,383.125L656.548,383.661L656.582,384.197L656.614,384.735L656.643,385.273L656.671,385.812L656.695,386.351L656.717,386.892L656.737,387.432L656.755,387.974L656.77,388.517L656.783,389.06L656.793,389.604L656.801,390.148L656.806,390.694L656.809,391.24L656.81,391.788L656.808,392.336L656.804,392.884L656.798,393.434L656.789,393.984L656.778,394.535L656.764,395.087L656.748,395.64L656.729,396.194L656.709,396.749L656.685,397.304L656.66,397.861L656.632,398.418L656.601,398.976L656.568,399.535L656.533,400.095L656.495,400.656L656.455,401.217L656.413,401.78L656.368,402.344L656.32,402.909L656.271,403.475L656.219,404.041L656.164,404.609L656.104,405.209L656.082,405.393L656.051,405.599L656.016,405.799L655.976,405.989L655.934,406.173L655.889,406.354L655.841,406.529L655.79,406.7L655.738,406.867L655.683,407.034L655.627,407.197L655.569,407.358L655.508,407.519L655.446,407.679L655.382,407.838L655.316,407.996L655.248,408.154L655.18,408.311L655.109,408.468L655.036,408.627L654.962,408.783L654.886,408.942L654.809,409.1L654.729,409.259L654.649,409.419L654.567,409.578L654.483,409.739L654.397,409.899L654.311,410.061L654.222,410.223L654.132,410.386L654.041,410.549L653.948,410.714L653.854,410.878L653.759,411.043L653.662,411.209L653.564,411.375L653.462,411.546L653.261,411.877L653.053,412.215L652.841,412.554L652.624,412.895L652.402,413.237L652.177,413.58L651.948,413.923L651.715,414.268L651.479,414.612L651.239,414.956L650.997,415.3L650.752,415.643L650.505,415.985L650.256,416.326L650.005,416.664L649.752,417.001L649.497,417.335L649.242,417.667L648.985,417.995L648.727,418.32L648.469,418.641L648.211,418.959L647.952,419.272L647.693,419.58L647.437,419.88L647.305,420.034L647.176,420.182L647.046,420.329L646.917,420.475L646.788,420.62L646.659,420.763L646.53,420.904L646.401,421.044L646.272,421.183L646.143,421.32L646.015,421.455L645.886,421.589L645.757,421.722L645.629,421.853L645.5,421.982L645.371,422.11L645.242,422.236L645.113,422.36L644.984,422.483L644.853,422.605L644.723,422.725L644.592,422.843L644.461,422.96L644.328,423.075L644.193,423.19L644.058,423.303L643.923,423.414L643.784,423.524L643.643,423.633L643.5,423.741L643.354,423.848L643.205,423.953L643.05,424.059L642.891,424.163L642.728,424.266L642.557,424.368L642.378,424.471L642.19,424.572L641.992,424.671L641.814,424.754L641.243,425.008L640.711,425.243L640.184,425.472L639.664,425.697L639.15,425.917L638.642,426.132L638.139,426.342L637.642,426.548L637.151,426.748L636.665,426.944L636.185,427.136L635.71,427.322L635.241,427.504L634.776,427.682L634.317,427.854L633.863,428.023L633.413,428.187L632.969,428.346L632.529,428.501L632.094,428.651L631.664,428.798L631.237,428.939L630.816,429.077L630.398,429.21L629.985,429.339L629.576,429.464L629.171,429.584L628.77,429.7L628.373,429.812L627.979,429.92L627.589,430.024L627.202,430.124L626.819,430.219L626.445,430.309L626.252,430.355L626.064,430.398L625.877,430.44L625.69,430.481L625.505,430.521L625.321,430.56L625.137,430.598L624.954,430.635L624.772,430.671L624.59,430.706L624.409,430.74L624.229,430.773L624.05,430.805L623.871,430.836L623.693,430.866L623.516,430.895L623.339,430.923L623.163,430.95L622.987,430.977L622.813,431.001L622.639,431.025L622.466,431.048L622.293,431.07L622.121,431.091L621.949,431.111L621.778,431.13L621.607,431.148L621.437,431.165L621.268,431.181L621.1,431.196L620.932,431.21L620.764,431.223L620.598,431.235L620.431,431.246L620.266,431.256L620.1,431.265L619.935,431.273L619.771,431.28L619.607,431.286L619.444,431.29L619.282,431.294L619.12,431.297L618.958,431.299L618.798,431.3L618.637,431.3L618.477,431.299L618.317,431.297L618.159,431.294L618.001,431.29L617.843,431.285L617.686,431.279L617.529,431.272L617.372,431.264L617.217,431.255L617.062,431.245L616.908,431.234L616.753,431.222L616.6,431.21L616.447,431.196L616.294,431.181L616.142,431.166L615.991,431.149L615.839,431.131L615.69,431.113L615.54,431.093L615.391,431.073L615.242,431.052L615.094,431.03L614.947,431.007L614.799,430.983L614.653,430.958L614.507,430.932L614.362,430.905L614.217,430.878L614.073,430.849L613.929,430.82L613.786,430.79L613.644,430.759L613.503,430.728L613.353,430.693L613.08,430.628L612.802,430.557L612.526,430.484L612.253,430.407L611.981,430.328L611.712,430.246L611.446,430.161L611.182,430.073L610.92,429.983L610.66,429.891L610.403,429.796L610.147,429.699L609.895,429.6L609.644,429.499L609.395,429.396L609.148,429.291L608.903,429.185L608.66,429.076L608.419,428.966L608.18,428.855L607.942,428.742L607.706,428.628L607.471,428.512L607.238,428.395L607.007,428.277L606.776,428.158L606.546,428.038L606.318,427.916L606.091,427.794L605.865,427.671L605.639,427.547L605.414,427.422L605.191,427.297L604.964,427.169L604.521,426.916L604.076,426.659L603.632,426.4L603.186,426.138L602.291,425.611L601.839,425.344L601.384,425.077L600.924,424.808L600.451,424.534L600.187,424.381L599.916,424.223L599.645,424.064L599.376,423.904L599.107,423.744L598.838,423.583L598.57,423.422L598.303,423.259L598.036,423.096L597.77,422.933L597.505,422.769L597.239,422.604L596.975,422.439L596.711,422.273L596.448,422.106L596.183,421.938L595.662,421.604L595.14,421.266L594.62,420.926L594.103,420.585L593.588,420.241L593.074,419.896L592.563,419.549L592.053,419.2L591.545,418.85L591.039,418.498L590.535,418.145L590.033,417.791L589.532,417.436L589.032,417.08L588.535,416.722L588.039,416.364L587.544,416.005L587.051,415.645L586.559,415.284L586.069,414.923L585.58,414.562L585.092,414.2L584.606,413.837L584.118,413.473L583.58,413.068L583.041,412.66L582.504,412.25L581.97,411.838L581.437,411.425L580.906,411.011L580.377,410.595L579.849,410.178L579.323,409.76L578.8,409.341L578.277,408.92L577.756,408.498L577.237,408.076L576.719,407.653L576.202,407.229L575.687,406.804L575.173,406.378L574.661,405.952L574.149,405.526L573.639,405.098L573.13,404.671L572.621,404.243L572.114,403.815L571.607,403.386L570.598,402.53L569.592,401.674L568.588,400.818L567.586,399.963L566.459,398.532L565.992,396.8L566.256,395.029L567.211,393.489L568.712,392.415L570.529,391.97L572.387,392.221L574.003,393.132L575.002,393.985L576.001,394.837L576.999,395.686L577.997,396.532L578.495,396.953L578.993,397.374L579.492,397.794L579.991,398.213L580.489,398.63L580.989,399.047L581.488,399.462L581.988,399.875L582.488,400.288L582.988,400.699L583.489,401.108L583.99,401.516L584.492,401.922L584.995,402.326L585.498,402.729L586.002,403.13L586.506,403.529L587.011,403.926L587.517,404.321L588.024,404.713L588.532,405.104L589.041,405.493L589.551,405.879L590.064,406.265L590.535,406.617L591.009,406.97L591.484,407.322L591.958,407.673L592.433,408.023L592.907,408.371L593.382,408.718L593.858,409.063L594.333,409.406L594.81,409.748L595.286,410.088L595.763,410.427L596.24,410.763L596.718,411.098L597.197,411.43L597.676,411.76L598.155,412.088L598.636,412.414L599.117,412.738L599.598,413.059L600.081,413.377L600.564,413.693L601.047,414.007L601.535,414.319L601.775,414.472L602.018,414.625L602.261,414.778L602.504,414.93L602.748,415.082L602.992,415.232L603.236,415.382L603.48,415.531L603.724,415.68L603.969,415.827L604.214,415.974L604.46,416.12L604.705,416.265L604.951,416.41L605.197,416.553L605.45,416.7L605.938,416.983L606.42,417.265L606.891,417.542L607.35,417.812L608.236,418.334L608.662,418.584L609.079,418.827L609.485,419.062L609.886,419.291L610.079,419.4L610.272,419.508L610.463,419.614L610.652,419.718L610.839,419.82L611.024,419.919L611.207,420.016L611.388,420.111L611.567,420.204L611.744,420.294L611.92,420.382L612.093,420.468L612.266,420.551L612.436,420.632L612.606,420.711L612.774,420.788L612.94,420.862L613.105,420.934L613.269,421.004L613.432,421.071L613.593,421.136L613.754,421.199L613.914,421.26L614.073,421.318L614.232,421.375L614.39,421.429L614.547,421.481L614.705,421.531L614.862,421.579L615.019,421.625L615.176,421.669L615.333,421.711L615.491,421.751L615.657,421.791L615.729,421.807L615.809,421.825L615.889,421.843L615.969,421.859L616.049,421.876L616.129,421.892L616.21,421.907L616.291,421.922L616.373,421.936L616.455,421.95L616.536,421.963L616.619,421.976L616.703,421.989L616.786,422.001L616.869,422.012L616.953,422.023L617.039,422.034L617.124,422.044L617.21,422.053L617.296,422.062L617.383,422.07L617.471,422.078L617.559,422.085L617.648,422.092L617.737,422.099L617.828,422.104L617.919,422.11L618.01,422.114L618.102,422.118L618.195,422.122L618.289,422.125L618.383,422.127L618.479,422.129L618.575,422.13L618.672,422.131L618.769,422.131L618.869,422.13L618.968,422.129L619.069,422.127L619.17,422.125L619.272,422.122L619.375,422.118L619.48,422.114L619.585,422.109L619.691,422.103L619.798,422.096L619.906,422.089L620.016,422.081L620.126,422.073L620.237,422.064L620.35,422.054L620.464,422.043L620.578,422.032L620.694,422.019L620.811,422.006L620.928,421.993L621.047,421.978L621.168,421.963L621.289,421.947L621.412,421.93L621.536,421.912L621.661,421.894L621.787,421.874L621.914,421.854L622.043,421.833L622.172,421.811L622.303,421.789L622.436,421.765L622.57,421.74L622.704,421.715L622.841,421.689L622.978,421.662L623.117,421.634L623.256,421.605L623.398,421.575L623.541,421.544L623.684,421.512L623.83,421.479L623.976,421.446L624.119,421.412L624.424,421.339L624.73,421.262L625.04,421.182L625.357,421.098L625.679,421.01L626.007,420.917L626.34,420.821L626.679,420.72L627.025,420.615L627.376,420.505L627.733,420.391L628.096,420.273L628.465,420.15L628.84,420.023L629.221,419.891L629.608,419.755L630.002,419.613L630.402,419.468L630.808,419.317L631.221,419.162L631.64,419.002L632.065,418.837L632.498,418.667L632.936,418.492L633.382,418.312L633.834,418.128L634.293,417.938L634.758,417.743L635.231,417.543L635.711,417.338L636.197,417.128L636.691,416.913L637.191,416.692L637.561,416.527L637.59,416.507L637.625,416.48L637.666,416.448L637.712,416.412L637.763,416.37L637.818,416.324L637.877,416.274L637.939,416.22L638.005,416.161L638.075,416.098L638.147,416.032L638.221,415.962L638.299,415.889L638.379,415.811L638.461,415.731L638.545,415.648L638.632,415.561L638.72,415.471L638.81,415.379L638.901,415.283L638.995,415.185L639.089,415.085L639.185,414.981L639.283,414.875L639.381,414.767L639.481,414.656L639.582,414.543L639.684,414.429L639.786,414.312L639.89,414.192L639.992,414.075L640.206,413.824L640.42,413.569L640.635,413.308L640.853,413.042L641.071,412.769L641.29,412.493L641.51,412.212L641.73,411.927L641.949,411.639L642.168,411.348L642.385,411.055L642.601,410.76L642.815,410.463L643.027,410.166L643.237,409.869L643.443,409.572L643.647,409.275L643.846,408.98L644.042,408.687L644.233,408.396L644.42,408.107L644.601,407.822L644.777,407.542L644.948,407.265L645.114,406.99L645.191,406.861L645.269,406.728L645.345,406.599L645.42,406.47L645.492,406.343L645.563,406.218L645.631,406.095L645.698,405.974L645.763,405.856L645.825,405.74L645.886,405.626L645.944,405.515L646,405.406L646.053,405.3L646.104,405.198L646.153,405.098L646.199,405.002L646.243,404.908L646.284,404.819L646.322,404.734L646.358,404.652L646.391,404.575L646.421,404.504L646.448,404.436L646.473,404.374L646.493,404.318L646.512,404.267L646.527,404.223L646.539,404.187L646.546,404.166L646.587,403.756L646.638,403.223L646.687,402.692L646.733,402.161L646.778,401.632L646.82,401.104L646.86,400.578L646.897,400.052L646.932,399.527L646.965,399.003L646.996,398.481L647.025,397.959L647.051,397.439L647.075,396.92L647.097,396.401L647.116,395.884L647.133,395.368L647.148,394.852L647.161,394.338L647.172,393.824L647.18,393.312L647.186,392.8L647.19,392.29L647.191,391.78L647.191,391.271L647.188,390.763L647.182,390.256L647.175,389.75L647.166,389.245L647.154,388.74L647.14,388.237L647.124,387.734L647.105,387.232L647.084,386.731L647.062,386.231L647.037,385.731L647.009,385.232L646.98,384.734L646.948,384.237L646.914,383.74L646.878,383.244L646.84,382.749L646.799,382.255L646.756,381.761L646.711,381.268L646.664,380.775L646.615,380.283L646.563,379.792L646.51,379.301L646.454,378.812L646.396,378.322L646.335,377.833L646.273,377.345L646.208,376.857L646.141,376.37L646.072,375.884L646.001,375.398L645.927,374.912L645.852,374.427L645.774,373.943L645.694,373.459L645.612,372.975L645.527,372.492L645.441,372.009L645.352,371.527L645.261,371.045L645.168,370.563L645.073,370.082L644.975,369.602L644.875,369.121L644.774,368.641L644.67,368.161L644.563,367.682L644.455,367.203L644.344,366.724L644.232,366.246L644.117,365.768L644,365.29L643.88,364.812L643.759,364.335L643.635,363.858L643.509,363.381L643.381,362.904L643.251,362.428L643.119,361.952L642.984,361.475L642.847,360.999L642.708,360.523L642.567,360.048L642.424,359.573L642.279,359.097L642.131,358.622L641.981,358.146L641.829,357.672L641.675,357.196L641.519,356.721L641.36,356.247L641.199,355.772L641.036,355.297L640.871,354.822L640.704,354.347L640.534,353.872L640.363,353.397L640.189,352.923L640.013,352.448L639.835,351.973L639.654,351.498L639.472,351.023L639.287,350.547L639.1,350.072L638.911,349.597L638.719,349.121L638.526,348.646L638.33,348.17L638.132,347.694L637.932,347.218L637.729,346.742L637.525,346.266L637.318,345.789L637.109,345.312L636.898,344.835L636.685,344.358L636.47,343.881L636.252,343.403L636.032,342.925L635.81,342.447L635.586,341.969L635.354,341.478L635.202,341.155L635.044,340.811L634.885,340.46L634.726,340.102L634.567,339.736L634.406,339.362L634.245,338.982L634.083,338.595L633.92,338.201L633.756,337.801L633.592,337.394L633.426,336.982L633.26,336.564L633.092,336.14L632.924,335.711L632.755,335.278L632.586,334.84L632.415,334.396L632.072,333.501L631.727,332.591L631.378,331.67L630.678,329.809L630.325,328.872L629.972,327.935L629.619,327.002L629.267,326.074L628.914,325.153L628.739,324.699L628.564,324.247L628.389,323.798L628.215,323.354L628.042,322.914L627.869,322.478L627.697,322.048L627.526,321.623L627.356,321.205L627.186,320.792L627.018,320.387L626.851,319.988L626.686,319.597L626.521,319.214L626.359,318.841L626.198,318.475L626.039,318.119L625.882,317.773L625.727,317.438L625.572,317.11L625.498,316.955L625.424,316.8L625.35,316.648L625.277,316.499L625.204,316.354L625.132,316.211L625.062,316.072L624.992,315.936L624.923,315.804L624.854,315.676L624.787,315.55L624.717,315.422L624.292,314.645L623.858,313.85L623.421,313.047L622.98,312.235L622.536,311.414L622.089,310.585L621.639,309.748L621.186,308.903L620.731,308.051L620.274,307.191L619.815,306.324L619.354,305.45L618.892,304.57L618.428,303.684L617.964,302.791L617.498,301.893L617.032,300.989L616.565,300.08L616.098,299.166L615.631,298.247L615.164,297.323L614.698,296.395L614.232,295.464L613.768,294.528L613.304,293.589L612.841,292.647L612.38,291.701L611.921,290.753L611.463,289.802L611.008,288.85L610.781,288.372L610.555,287.894L610.329,287.416L610.104,286.937L609.88,286.458L609.656,285.978L609.433,285.499L609.211,285.019L608.99,284.538L608.77,284.058L608.55,283.577L608.332,283.096L608.114,282.615L607.897,282.133L607.681,281.652L607.466,281.171L607.252,280.689L607.039,280.208L606.828,279.727L606.617,279.245L606.407,278.764L606.199,278.283L605.991,277.802L605.785,277.321L605.581,276.841L605.377,276.36L605.175,275.88L604.974,275.401L604.774,274.921L604.575,274.442L604.378,273.963L604.183,273.485L603.989,273.007L603.796,272.53L603.605,272.053L603.415,271.576L603.227,271.101L603.041,270.626L602.856,270.151L602.672,269.677L602.491,269.204L602.311,268.731L602.132,268.259L601.956,267.788L601.781,267.317L601.608,266.848L601.436,266.379L601.267,265.911L601.1,265.445L600.934,264.978L600.77,264.513L600.608,264.049L600.449,263.586L600.291,263.124L600.135,262.663L599.981,262.203L599.83,261.744L599.68,261.286L599.533,260.829L599.388,260.374L599.245,259.919L599.104,259.466L598.965,259.014L598.829,258.564L598.695,258.114L598.563,257.666L598.434,257.219L598.309,256.78L598.15,256.219L597.992,255.664L597.671,254.544L597.346,253.419L597.019,252.287L596.356,250.004L596.023,248.854L595.69,247.698L595.358,246.537L595.191,245.953L595.026,245.369L594.861,244.783L594.696,244.197L594.532,243.609L594.369,243.02L594.207,242.429L594.046,241.838L593.886,241.245L593.727,240.652L593.569,240.057L593.413,239.461L593.258,238.864L593.104,238.266L592.953,237.667L592.803,237.067L592.655,236.467L592.508,235.865L592.364,235.262L592.222,234.659L592.083,234.054L591.945,233.449L591.81,232.843L591.678,232.236L591.548,231.629L591.421,231.02L591.297,230.411L591.176,229.804L591.116,229.496L591.057,229.191L590.999,228.885L590.942,228.58L590.885,228.274L590.83,227.968L590.775,227.661L590.721,227.355L590.668,227.049L590.616,226.742L590.565,226.435L590.515,226.128L590.465,225.821L590.417,225.514L590.369,225.207L590.322,224.899L590.277,224.591L590.232,224.283L590.189,223.976L590.146,223.667L590.104,223.36L590.064,223.051L590.024,222.742L589.986,222.434L589.948,222.125L589.912,221.817L589.876,221.508L589.842,221.198L589.809,220.889L589.777,220.581L589.747,220.271L589.717,219.962L589.689,219.652L589.662,219.343L589.635,219.033L589.611,218.723L589.587,218.413L589.565,218.103L589.544,217.793L589.524,217.483L589.506,217.173L589.489,216.862L589.473,216.552L589.458,216.242L589.445,215.931L589.433,215.62L589.423,215.31L589.414,215L589.406,214.689L589.4,214.378L589.395,214.067L589.392,213.757L589.39,213.446L589.39,213.135L589.391,212.824L589.393,212.513L589.397,212.202L589.403,211.891L589.41,211.58L589.419,211.269L589.429,210.958L589.441,210.647L589.455,210.336L589.47,210.025L589.487,209.714L589.505,209.403L589.525,209.092L589.547,208.781L589.57,208.47L589.596,208.159L589.623,207.848L589.651,207.537L589.682,207.226L589.714,206.916L589.748,206.605L589.783,206.294L589.821,205.984L589.86,205.674L589.901,205.363L589.944,205.053L589.989,204.742L590.036,204.432L590.085,204.122L590.136,203.812L590.188,203.502L590.243,203.193L590.299,202.883L590.357,202.573L590.418,202.264L590.48,201.955L590.545,201.646L590.611,201.337L590.68,201.028L590.75,200.72L590.823,200.411L590.897,200.103L590.974,199.795L591.053,199.487L591.134,199.179L591.217,198.872L591.303,198.565L591.39,198.258L591.48,197.951L591.572,197.644L591.666,197.338L591.762,197.032L591.86,196.727L591.961,196.421L592.064,196.116L592.17,195.811L592.277,195.507L592.387,195.202L592.499,194.898L592.614,194.595L592.73,194.291L592.85,193.988L592.971,193.686L593.095,193.383L593.221,193.082L593.35,192.78L593.481,192.479L593.614,192.178L593.75,191.878L593.889,191.578L594.03,191.278L594.173,190.98L594.318,190.681L594.467,190.383L594.617,190.085L594.77,189.788L594.926,189.491L595.084,189.195L595.245,188.899L595.408,188.604L595.574,188.309L595.742,188.015L595.913,187.721L596.087,187.428L596.263,187.135L596.441,186.843L596.623,186.551L596.806,186.261L596.993,185.97L597.182,185.681L597.374,185.391L597.568,185.103L597.765,184.815L597.964,184.528L598.167,184.241L598.372,183.955L598.579,183.669L598.79,183.385L599.003,183.101L599.219,182.817L599.437,182.534L599.658,182.252L599.882,181.971L600.108,181.69L600.338,181.41L600.57,181.13L600.804,180.852L601.042,180.574L601.282,180.297L601.524,180.022L601.65,179.881L601.775,179.741L601.901,179.603L602.026,179.467L602.152,179.331L602.279,179.195L602.406,179.061L602.532,178.928L602.66,178.796L602.788,178.665L602.917,178.535L603.045,178.406L603.174,178.278L603.304,178.15L603.434,178.024L603.563,177.899L603.694,177.775L603.825,177.651L603.956,177.529L604.088,177.408L604.22,177.287L604.353,177.168L604.485,177.05L604.618,176.932L604.752,176.816L604.886,176.7L605.02,176.586L605.154,176.472L605.29,176.36L605.425,176.248L605.56,176.138L605.696,176.028L605.832,175.92L605.97,175.812L606.107,175.705L606.244,175.599L606.382,175.495L606.519,175.391L606.658,175.288L606.797,175.186L606.936,175.085L607.076,174.985L607.215,174.887L607.355,174.789L607.495,174.692L607.636,174.596L607.777,174.501L607.919,174.407L608.061,174.314L608.202,174.222L608.345,174.131L608.488,174.041L608.631,173.952L608.773,173.864L608.917,173.777L609.061,173.691L609.205,173.606L609.349,173.521L609.494,173.438L609.639,173.356L609.784,173.274L609.93,173.194L610.076,173.115L610.222,173.036L610.368,172.959L610.515,172.883L610.662,172.807L610.809,172.733L610.956,172.659L611.104,172.587L611.252,172.515L611.4,172.445L611.548,172.375L611.697,172.306L611.845,172.239L611.995,172.172L612.144,172.106L612.293,172.041L612.443,171.978L612.593,171.915L612.743,171.853L612.893,171.792L613.043,171.732L613.194,171.673L613.345,171.615L613.496,171.557L613.648,171.501L613.799,171.446L613.95,171.392L614.102,171.338L614.254,171.286L614.406,171.234L614.558,171.184L614.71,171.134L614.863,171.086L615.015,171.038L615.168,170.991L615.321,170.945L615.474,170.9L615.627,170.856L615.781,170.813L615.934,170.771L616.087,170.729L616.241,170.689L616.395,170.65L616.549,170.611L616.703,170.573L616.856,170.537L617.01,170.501L617.165,170.466L617.319,170.432L617.473,170.398L617.627,170.366L617.789,170.333L618.091,170.274L618.4,170.217L618.709,170.164L619.019,170.114L619.329,170.068L619.638,170.024L619.948,169.985L620.258,169.948L620.568,169.915L620.878,169.885L621.188,169.858L621.498,169.834L621.807,169.813L622.117,169.796L622.427,169.782L622.736,169.77L623.046,169.762L623.355,169.756L623.664,169.754L623.973,169.754Z" style="fill:white;"/>
        </g>
        <path id="Combined-Shape" d="M408,422C490.843,422 558,354.843 558,272C558,189.157 490.843,122 408,122C325.157,122 258,189.157 258,272C258,354.843 325.157,422 408,422ZM408.5,400C478.916,400 536,342.916 536,272.5C536,202.084 478.916,145 408.5,145C338.084,145 281,202.084 281,272.5C281,342.916 338.084,400 408.5,400Z" style="fill:white;"/>
        <g id="Combined-Shape1" transform="matrix(0.573174,0.573174,-0.573174,0.573174,435.478,-154.919)">
            <path d="M553.569,406.569C575.66,406.569 593.569,388.66 593.569,366.569C593.569,344.477 575.66,326.569 553.569,326.569C531.477,326.569 513.569,344.477 513.569,366.569C513.569,388.66 531.477,406.569 553.569,406.569ZM553.569,394.569C569.033,394.569 581.569,382.033 581.569,366.569C581.569,351.105 569.033,338.569 553.569,338.569C538.105,338.569 525.569,351.105 525.569,366.569C525.569,382.033 538.105,394.569 553.569,394.569Z" style="fill:white;stroke-width:1.23px;stroke:white;"/>
        </g>
        <path id="Star-2" d="M501.455,213.099L495.626,233L501.455,252.901L499.901,254.455L480,248.626L460.099,254.455L458.545,252.901L464.374,233L458.545,213.099L460.099,211.545L480,217.374L499.901,211.545L501.455,213.099ZM480,223.626L466.743,219.743L470.626,233L466.743,246.257L480,242.374L493.257,246.257L489.374,233L493.257,219.743L480,223.626Z" style="fill:white;"/>
    </g>
</svg>
